<svg>
    <defs>
        <!-- zoom x -->
        <svg xmlns="http://www.w3.org/2000/svg" width="24" height="24" viewBox="0 0 24 24" id="zoom-x"><path d="M0 0h24v24H0z" fill="none"/><path d="M16.437 14.264h-.881l-.312-.3a7.215 7.215 0 0 0 1.75-4.717 7.247 7.247 0 1 0-7.247 7.247 7.215 7.215 0 0 0 4.716-1.75l.301.312v.88L20.34 21.5 22 19.839zm-6.69 0A5.01 5.01 0 0 1 4.73 9.247 5.01 5.01 0 0 1 9.747 4.23a5.01 5.01 0 0 1 5.017 5.017 5.01 5.01 0 0 1-5.017 5.017zM6.96 8.69h5.574v1.114H6.96z"/><path d="M11.438 6.75l2.812 2.494-2.81 2.506zm-3.376 5L5.25 9.256 8.06 6.75z"/></svg>

        <!-- zoom xy -->
        <svg xmlns="http://www.w3.org/2000/svg" width="24" height="24" viewBox="0 0 24 24" id="zoom-xy"><path d="M16.437 14.264h-.881l-.312-.3a7.215 7.215 0 0 0 1.75-4.717 7.247 7.247 0 1 0-7.247 7.247 7.215 7.215 0 0 0 4.716-1.75l.301.312v.88L20.34 21.5 22 19.839zm-6.69 0A5.01 5.01 0 0 1 4.73 9.247 5.01 5.01 0 0 1 9.747 4.23a5.01 5.01 0 0 1 5.017 5.017 5.01 5.01 0 0 1-5.017 5.017z"/><path fill="none" d="M0 0h24v24H0V0z"/><path d="M12.365 9.873H10.29v2.067H9.252V9.873H7.176V8.839h2.076V6.773h1.038v2.066h2.075z"/><path d="M11.587 7.496l-3.633-.014 1.832-2.57zm0 3.669l.014-3.617 2.58 1.824zm-3.633.051l3.633.015L9.755 13.8zm-.052-3.668l-.014 3.617-2.58-1.824z"/></svg>

        <!-- highlight pen -->
        <svg xmlns="http://www.w3.org/2000/svg" width="24" height="24" viewBox="0 0 24 24" id="highlight-pen"><path d="M2.5 2.5h5v19h-5z" opacity=".75" paint-order="markers stroke fill"/><path d="M0 0h24v24H0z" fill="none"/><path d="M4 17.75v3.75h3.75l11.058-11.059-3.75-3.749zM21.708 7.543a.996.996 0 0 0 0-1.41l-2.34-2.34a.996.996 0 0 0-1.41 0l-1.83 1.83 3.75 3.75z"/></svg>

        <!-- vertical line pen -->
        <svg xmlns="http://www.w3.org/2000/svg" width="24" height="24" viewBox="0 0 24 24" id="vertical-line-pen"><path d="M0 0h24v24H0z" fill="none"/><path d="M4 17.75v3.75h3.75l11.058-11.059-3.75-3.749zM21.708 7.543a.996.996 0 0 0 0-1.41l-2.34-2.34a.996.996 0 0 0-1.41 0l-1.83 1.83 3.75 3.75z"/><path d="M2.5 16.879H5V21.5H2.5zm0-7.51H5v4.621H2.5zm0-6.932H5v4.621H2.5z" opacity=".75" paint-order="markers stroke fill"/></svg>

        <!-- horizontal line pen -->
        <svg xmlns="http://www.w3.org/2000/svg" width="24" height="24" viewBox="0 0 24 24" id="horizontal-line-pen"><path d="M0 0h24v24H0z" fill="none"/><path d="M4 17.75v3.75h3.75l11.058-11.059-3.75-3.749zM21.708 7.543a.996.996 0 0 0 0-1.41l-2.34-2.34a.996.996 0 0 0-1.41 0l-1.83 1.83 3.75 3.75z"/><path d="M7.227 19v2.5H2.5V19zm7.682 0v2.5h-4.727V19zM22 19v2.5h-4.727V19z" opacity=".75" paint-order="markers stroke fill"/></svg>

        <!-- line segment pen -->
        <svg xmlns="http://www.w3.org/2000/svg" width="24" height="24" viewBox="0 0 24 24" id="line-segment-pen"><path d="M0 0h24v24H0z" fill="none"/><path d="M4 17.75v3.75h3.75l11.058-11.059-3.75-3.749zM21.708 7.543a.996.996 0 0 0 0-1.41l-2.34-2.34a.996.996 0 0 0-1.41 0l-1.83 1.83 3.75 3.75z"/><path d="M7.13 17.905l.62 2.422L3.17 21.5l-.62-2.422zM14.571 16l.62 2.422-4.58 1.172-.62-2.422zm6.87-1.76l.62 2.423-4.58 1.172-.62-2.422z" opacity=".75" paint-order="markers stroke fill"/></svg>

        <!-- pointer -->
        <svg xmlns="http://www.w3.org/2000/svg" viewBox="0 0 24 24" width="24" height="24" id="pointer"><path d="M17.332 14.642h-3.978l2.094 5.1a.697.697 0 0 1-.355.9l-1.843.803a.663.663 0 0 1-.875-.364l-1.99-4.842-3.25 3.342C6.702 20.027 6 19.683 6 19.1V2.986c0-.615.747-.915 1.135-.482l10.666 10.97c.43.42.113 1.168-.469 1.168z"/></svg>

        <!-- solid line -->
        <svg xmlns="http://www.w3.org/2000/svg" width="24" height="24" viewBox="0 0 24 24" id="solid-line"><path d="M0 0h24v24H0z" fill="none"/><path d="M19.5 2.5l2 2-17 17-2-2z" paint-order="markers stroke fill"/></svg>

        <!-- dashed-line -->
        <svg xmlns="http://www.w3.org/2000/svg" width="24" height="24" viewBox="0 0 24 24" id="dashed-line"><path d="M0 0h24v24H0z" fill="none"/><path d="M6.5 15.5l2 2-4 4-2-2zM13 9l2 2-4 4-2-2zM19 3l2 2-4 4-2-2z" paint-order="markers stroke fill"/></svg>

        <!-- dotted line -->
        <svg xmlns="http://www.w3.org/2000/svg" width="24" height="24" viewBox="0 0 24 24" id="dotted-line"><path d="M0 0h24v24H0z" fill="none"/><circle cx="4" cy="20" r="1.5" paint-order="markers stroke fill"/><circle cx="7" cy="17" r="1.5" paint-order="markers stroke fill"/><circle cx="10" cy="14" r="1.5" paint-order="markers stroke fill"/><circle cx="13" cy="11" r="1.5" paint-order="markers stroke fill"/><circle cx="16" cy="8" r="1.5" paint-order="markers stroke fill"/><circle cx="19" cy="5" r="1.5" paint-order="markers stroke fill"/></svg>

        <!-- undo annotation -->
        <svg xmlns="http://www.w3.org/2000/svg" width="24" height="24" viewBox="0 0 24 24" id="undo-annotation"><path d="M0 0h24v24H0z" fill="none"/><path d="M10.482 3.016c-1.936.758-3.384 2.247-4.238 4.08L2.5 5.21l2.783 7.29 6.577-2.575-3.765-1.896c.657-1.338 1.728-2.427 3.16-2.988 2.587-1.013 5.5-.003 7.254 2.28L20 6.01c-2.311-2.996-6.12-4.326-9.518-2.995zM8 18.688V21.5h2.812l8.294-8.294-2.812-2.812zm13.28-7.657a.747.747 0 0 0 0-1.057L19.527 8.22a.747.747 0 0 0-1.057 0l-1.373 1.373 2.812 2.812z"/></svg>

        <!-- undo zoom -->
        <svg xmlns="http://www.w3.org/2000/svg" width="24" height="24" viewBox="0 0 24 24" id="undo-zoom"><path d="M0 0h24v24H0z" fill="none"/><path d="M10.482 3.016c-1.936.758-3.384 2.247-4.238 4.08L2.5 5.21l2.783 7.29 6.577-2.575-3.765-1.896c.657-1.338 1.728-2.427 3.16-2.988 2.587-1.013 5.5-.003 7.254 2.28L20 6.01c-2.311-2.996-6.12-4.326-9.518-2.995z"/><path d="M11.851 16.49h.61l.216-.207a4.995 4.995 0 0 1-1.211-3.266 5.017 5.017 0 1 1 5.017 5.017 4.995 4.995 0 0 1-3.265-1.211l-.208.216v.609L9.15 21.5 8 20.35zm4.632 0a3.468 3.468 0 0 0 3.473-3.473 3.468 3.468 0 0 0-3.473-3.473 3.468 3.468 0 0 0-3.473 3.473 3.468 3.468 0 0 0 3.473 3.473z"/></svg>

        <!-- close all -->
        <svg xmlns="http://www.w3.org/2000/svg" width="24" height="24" viewBox="0 0 24 24" id="close-all"><path fill="none" d="M0 0h24v24H0V0z"/><path d="M9.846 3A6.848 6.848 0 0 0 3 9.846a6.848 6.848 0 0 0 6.846 6.845 6.848 6.848 0 0 0 6.845-6.845A6.848 6.848 0 0 0 9.846 3zm0 12.322a5.484 5.484 0 0 1-5.477-5.476 5.484 5.484 0 0 1 5.477-5.477 5.484 5.484 0 0 1 5.476 5.477 5.484 5.484 0 0 1-5.476 5.476z"/><path d="M15.248 6.792a6.085 6.085 0 0 1 2.793 6.224 6.085 6.085 0 0 1-4.741 4.906 6.085 6.085 0 0 1-6.316-2.58" fill="none" stroke="#000" stroke-width="1.52085969"/><path d="M17.381 8.843a6.085 6.085 0 0 1 2.793 6.224 6.085 6.085 0 0 1-4.741 4.906 6.085 6.085 0 0 1-6.316-2.58" fill="none" stroke="#000" stroke-width="1.52085969"/><path d="M12.789 7.363l-.61-.61L9.762 9.17 7.344 6.753l-.61.61L9.153 9.78l-2.417 2.417.61.61 2.417-2.417 2.417 2.417.61-.61L10.37 9.78z"/></svg>

        <!-- plot screenshot -->
        <svg xmlns="http://www.w3.org/2000/svg" width="24" height="24" viewBox="0 0 24 24" id="plot-screenshot"><path d="M4.801 15.199v-1.598a.801.801 0 1 0-1.602 0v1.598a.801.801 0 1 0 1.602 0zM8 4a.8.8 0 0 0 .801.801h1.598a.801.801 0 1 0 0-1.602H8.801A.8.8 0 0 0 8 4zm-4 7.199a.8.8 0 0 0 .801-.801V8.801a.801.801 0 1 0-1.602 0v1.598A.8.8 0 0 0 4 11.2zm14.398-6.398h.801v.801a.801.801 0 1 0 1.602 0v-.801a1.6 1.6 0 0 0-1.602-1.602h-.801a.8.8 0 1 0 0 1.602zM12.801 4a.8.8 0 0 0 .801.801H15.2a.801.801 0 1 0 0-1.602h-1.598a.8.8 0 0 0-.801.801zM5.602 19.199h-.801v-.801a.8.8 0 1 0-1.602 0v.801a1.6 1.6 0 0 0 1.602 1.602h.801a.801.801 0 1 0 0-1.602z"/><path d="M4.801 5.602v-.801h.801a.8.8 0 1 0-.001-1.602H4.8a1.6 1.6 0 0 0-1.602 1.602v.801a.8.8 0 1 0 1.603 0zm14.398 3.199v1.602a.801.801 0 1 0 1.602 0V8.801a.801.801 0 1 0-1.602 0zm.801 4h-1.41c-.609 0-1.16-.344-1.434-.887l-.137-.273c-.133-.27-.41-.441-.715-.441h-3.809c-.305 0-.582.172-.719.441l-.137.273a1.6 1.6 0 0 1-1.43.887h-1.41a.8.8 0 0 0-.801.801V20a.8.8 0 0 0 .801.801H20a.8.8 0 0 0 .8-.801v-6.398a.8.8 0 0 0-.801-.801zM14.398 20a3.2 3.2 0 1 1 3.203-3.199c0 1.766-1.434 3.199-3.203 3.199zM16 16.801a1.6 1.6 0 1 1-3.2 0 1.6 1.6 0 1 1 3.2 0z"/></svg>

        <!-- x-axis button -->
        <svg xmlns="http://www.w3.org/2000/svg" width="24" height="24" viewBox="0 0 24 24" id="x-axis"><path d="M9 21V18H8V21H9Z"/><path d="M21 19H5V3H4V20H21V19Z"/><path d="M14 21V18H13V21H14Z"/><path d="M19 21V18H18V21H19Z"/><path d="M6 16V15H3V16H6Z"/><path d="M6 11V10H3V11H6Z"/><path d="M6 6V5H3V6H6Z"/><path d="M9.5 15L12.8 10.3L9.6 5.7H12L14 8.6L15.8 5.7H18.1L15.2 10.3L18.5 15H16.1L14 12L12 15H9.6Z"/></svg>

        <!-- z-axis button -->
        <svg xmlns="http://www.w3.org/2000/svg" width="24" height="24" viewBox="0 0 24 24" id="z-axis"><path d="M9 21V18H8V21H9Z"/><path d="M21 19H5V3H4V20H21V19Z"/><path d="M14 21V18H13V21H14Z"/><path d="M19 21V18H18V21H19Z"/><path d="M6 16V15H3V16H6Z"/><path d="M6 11V10H3V11H6Z"/><path d="M6 6V5H3V6H6Z"/><path d="M9.8 13.6L15 7.6H10.2V5.7H17.7V7.1L12.7 13.1H17.3C17.5 13.1 17.6 13.1 17.7 13.1C17.8 13.1 17.9 13 18 12.9H18.2V15H9.8V13.6Z"/></svg>

    </defs>
</svg>
