<svg>
    <defs>
        <!-- zoom x -->
        <svg xmlns="http://www.w3.org/2000/svg" width="24" height="24" viewBox="0 0 24 24" id="zoom-x"><path d="M0 0h24v24H0z" fill="none"/><path d="M16.437 14.264h-.881l-.312-.3a7.215 7.215 0 0 0 1.75-4.717 7.247 7.247 0 1 0-7.247 7.247 7.215 7.215 0 0 0 4.716-1.75l.301.312v.88L20.34 21.5 22 19.839zm-6.69 0A5.01 5.01 0 0 1 4.73 9.247 5.01 5.01 0 0 1 9.747 4.23a5.01 5.01 0 0 1 5.017 5.017 5.01 5.01 0 0 1-5.017 5.017zM6.96 8.69h5.574v1.114H6.96z"/><path d="M11.438 6.75l2.812 2.494-2.81 2.506zm-3.376 5L5.25 9.256 8.06 6.75z"/></svg>

        <!-- zoom xy -->
        <svg xmlns="http://www.w3.org/2000/svg" width="24" height="24" viewBox="0 0 24 24" id="zoom-xy"><path d="M16.437 14.264h-.881l-.312-.3a7.215 7.215 0 0 0 1.75-4.717 7.247 7.247 0 1 0-7.247 7.247 7.215 7.215 0 0 0 4.716-1.75l.301.312v.88L20.34 21.5 22 19.839zm-6.69 0A5.01 5.01 0 0 1 4.73 9.247 5.01 5.01 0 0 1 9.747 4.23a5.01 5.01 0 0 1 5.017 5.017 5.01 5.01 0 0 1-5.017 5.017z"/><path fill="none" d="M0 0h24v24H0V0z"/><path d="M12.365 9.873H10.29v2.067H9.252V9.873H7.176V8.839h2.076V6.773h1.038v2.066h2.075z"/><path d="M11.587 7.496l-3.633-.014 1.832-2.57zm0 3.669l.014-3.617 2.58 1.824zm-3.633.051l3.633.015L9.755 13.8zm-.052-3.668l-.014 3.617-2.58-1.824z"/></svg>

        <!-- highlight pen -->
        <svg xmlns="http://www.w3.org/2000/svg" width="24" height="24" viewBox="0 0 24 24" id="highlight-pen"><path d="M2.5 2.5h5v19h-5z" opacity=".75" paint-order="markers stroke fill"/><path d="M0 0h24v24H0z" fill="none"/><path d="M4 17.75v3.75h3.75l11.058-11.059-3.75-3.749zM21.708 7.543a.996.996 0 0 0 0-1.41l-2.34-2.34a.996.996 0 0 0-1.41 0l-1.83 1.83 3.75 3.75z"/></svg>

        <!-- vertical line pen -->
        <svg xmlns="http://www.w3.org/2000/svg" width="24" height="24" viewBox="0 0 24 24" id="vertical-line-pen"><path d="M0 0h24v24H0z" fill="none"/><path d="M4 17.75v3.75h3.75l11.058-11.059-3.75-3.749zM21.708 7.543a.996.996 0 0 0 0-1.41l-2.34-2.34a.996.996 0 0 0-1.41 0l-1.83 1.83 3.75 3.75z"/><path d="M2.5 16.879H5V21.5H2.5zm0-7.51H5v4.621H2.5zm0-6.932H5v4.621H2.5z" opacity=".75" paint-order="markers stroke fill"/></svg>

        <!-- horizontal line pen -->
        <svg xmlns="http://www.w3.org/2000/svg" width="24" height="24" viewBox="0 0 24 24" id="horizontal-line-pen"><path d="M0 0h24v24H0z" fill="none"/><path d="M4 17.75v3.75h3.75l11.058-11.059-3.75-3.749zM21.708 7.543a.996.996 0 0 0 0-1.41l-2.34-2.34a.996.996 0 0 0-1.41 0l-1.83 1.83 3.75 3.75z"/><path d="M7.227 19v2.5H2.5V19zm7.682 0v2.5h-4.727V19zM22 19v2.5h-4.727V19z" opacity=".75" paint-order="markers stroke fill"/></svg>

        <!-- line segment pen -->
        <svg xmlns="http://www.w3.org/2000/svg" width="24" height="24" viewBox="0 0 24 24" id="line-segment-pen"><path d="M0 0h24v24H0z" fill="none"/><path d="M4 17.75v3.75h3.75l11.058-11.059-3.75-3.749zM21.708 7.543a.996.996 0 0 0 0-1.41l-2.34-2.34a.996.996 0 0 0-1.41 0l-1.83 1.83 3.75 3.75z"/><path d="M7.13 17.905l.62 2.422L3.17 21.5l-.62-2.422zM14.571 16l.62 2.422-4.58 1.172-.62-2.422zm6.87-1.76l.62 2.423-4.58 1.172-.62-2.422z" opacity=".75" paint-order="markers stroke fill"/></svg>

        <!-- pointer -->
        <svg xmlns="http://www.w3.org/2000/svg" viewBox="0 0 24 24" width="24" height="24" id="pointer"><path d="M17.332 14.642h-3.978l2.094 5.1a.697.697 0 0 1-.355.9l-1.843.803a.663.663 0 0 1-.875-.364l-1.99-4.842-3.25 3.342C6.702 20.027 6 19.683 6 19.1V2.986c0-.615.747-.915 1.135-.482l10.666 10.97c.43.42.113 1.168-.469 1.168z"/></svg>

        <!-- solid line -->
        <svg xmlns="http://www.w3.org/2000/svg" width="24" height="24" viewBox="0 0 24 24" id="solid-line"><path d="M0 0h24v24H0z" fill="none"/><path d="M19.5 2.5l2 2-17 17-2-2z" paint-order="markers stroke fill"/></svg>

        <!-- dashed-line -->
        <svg xmlns="http://www.w3.org/2000/svg" width="24" height="24" viewBox="0 0 24 24" id="dashed-line"><path d="M0 0h24v24H0z" fill="none"/><path d="M6.5 15.5l2 2-4 4-2-2zM13 9l2 2-4 4-2-2zM19 3l2 2-4 4-2-2z" paint-order="markers stroke fill"/></svg>

        <!-- dotted line -->
        <svg xmlns="http://www.w3.org/2000/svg" width="24" height="24" viewBox="0 0 24 24" id="dotted-line"><path d="M0 0h24v24H0z" fill="none"/><circle cx="4" cy="20" r="1.5" paint-order="markers stroke fill"/><circle cx="7" cy="17" r="1.5" paint-order="markers stroke fill"/><circle cx="10" cy="14" r="1.5" paint-order="markers stroke fill"/><circle cx="13" cy="11" r="1.5" paint-order="markers stroke fill"/><circle cx="16" cy="8" r="1.5" paint-order="markers stroke fill"/><circle cx="19" cy="5" r="1.5" paint-order="markers stroke fill"/></svg>

        <!-- undo annotation -->
        <svg xmlns="http://www.w3.org/2000/svg" width="24" height="24" viewBox="0 0 24 24" id="undo-annotation"><path d="M0 0h24v24H0z" fill="none"/><path d="M10.482 3.016c-1.936.758-3.384 2.247-4.238 4.08L2.5 5.21l2.783 7.29 6.577-2.575-3.765-1.896c.657-1.338 1.728-2.427 3.16-2.988 2.587-1.013 5.5-.003 7.254 2.28L20 6.01c-2.311-2.996-6.12-4.326-9.518-2.995zM8 18.688V21.5h2.812l8.294-8.294-2.812-2.812zm13.28-7.657a.747.747 0 0 0 0-1.057L19.527 8.22a.747.747 0 0 0-1.057 0l-1.373 1.373 2.812 2.812z"/></svg>

        <!-- undo zoom -->
        <svg xmlns="http://www.w3.org/2000/svg" width="24" height="24" viewBox="0 0 24 24" id="undo-zoom"><path d="M0 0h24v24H0z" fill="none"/><path d="M10.482 3.016c-1.936.758-3.384 2.247-4.238 4.08L2.5 5.21l2.783 7.29 6.577-2.575-3.765-1.896c.657-1.338 1.728-2.427 3.16-2.988 2.587-1.013 5.5-.003 7.254 2.28L20 6.01c-2.311-2.996-6.12-4.326-9.518-2.995z"/><path d="M11.851 16.49h.61l.216-.207a4.995 4.995 0 0 1-1.211-3.266 5.017 5.017 0 1 1 5.017 5.017 4.995 4.995 0 0 1-3.265-1.211l-.208.216v.609L9.15 21.5 8 20.35zm4.632 0a3.468 3.468 0 0 0 3.473-3.473 3.468 3.468 0 0 0-3.473-3.473 3.468 3.468 0 0 0-3.473 3.473 3.468 3.468 0 0 0 3.473 3.473z"/></svg>

        <!-- expand all -->
        <svg xmlns="http://www.w3.org/2000/svg" width="24" height="24" viewBox="0 0 24 24" id="expand-all"><path fill="none" d="M0 0h24v24H0V0z"/><path d="M10.745 6.52H9.337v2.817H6.521v1.408h2.816v2.817h1.408v-2.817h2.817V9.337h-2.817zM10.041 3A7.044 7.044 0 0 0 3 10.041a7.044 7.044 0 0 0 7.041 7.041 7.044 7.044 0 0 0 7.041-7.04A7.044 7.044 0 0 0 10.042 3zm0 12.674a5.64 5.64 0 0 1-5.633-5.633 5.64 5.64 0 0 1 5.633-5.633 5.64 5.64 0 0 1 5.633 5.633 5.64 5.64 0 0 1-5.633 5.633z"/><path d="M15.434 6.76a6.259 6.259 0 0 1 2.873 6.403 6.259 6.259 0 0 1-4.877 5.045 6.259 6.259 0 0 1-6.496-2.654" fill="none" stroke="#000" stroke-width="1.56428883"/><path d="M17.51 8.812a6.259 6.259 0 0 1 2.872 6.403 6.259 6.259 0 0 1-4.877 5.045 6.259 6.259 0 0 1-6.496-2.654" fill="none" stroke="#000" stroke-width="1.56428883"/></svg>

        <!-- collapse all -->
        <svg xmlns="http://www.w3.org/2000/svg" width="24" height="24" viewBox="0 0 24 24" id="collapse-all"><path fill="none" d="M0 0h24v24H0V0z"/><path d="M6.423 9.161v1.37h6.845V9.16zM9.846 3A6.848 6.848 0 0 0 3 9.846a6.848 6.848 0 0 0 6.846 6.845 6.848 6.848 0 0 0 6.845-6.845A6.848 6.848 0 0 0 9.846 3zm0 12.322a5.484 5.484 0 0 1-5.477-5.476 5.484 5.484 0 0 1 5.477-5.477 5.484 5.484 0 0 1 5.476 5.477 5.484 5.484 0 0 1-5.476 5.476z"/><path d="M15.248 6.792a6.085 6.085 0 0 1 2.793 6.224 6.085 6.085 0 0 1-4.741 4.906 6.085 6.085 0 0 1-6.316-2.58" fill="none" stroke="#000" stroke-width="1.52085969"/><path d="M17.381 8.843a6.085 6.085 0 0 1 2.793 6.224 6.085 6.085 0 0 1-4.741 4.906 6.085 6.085 0 0 1-6.316-2.58" fill="none" stroke="#000" stroke-width="1.52085969"/></svg>

        <!-- close all -->
        <svg xmlns="http://www.w3.org/2000/svg" width="24" height="24" viewBox="0 0 24 24" id="close-all"><path fill="none" d="M0 0h24v24H0V0z"/><path d="M9.846 3A6.848 6.848 0 0 0 3 9.846a6.848 6.848 0 0 0 6.846 6.845 6.848 6.848 0 0 0 6.845-6.845A6.848 6.848 0 0 0 9.846 3zm0 12.322a5.484 5.484 0 0 1-5.477-5.476 5.484 5.484 0 0 1 5.477-5.477 5.484 5.484 0 0 1 5.476 5.477 5.484 5.484 0 0 1-5.476 5.476z"/><path d="M15.248 6.792a6.085 6.085 0 0 1 2.793 6.224 6.085 6.085 0 0 1-4.741 4.906 6.085 6.085 0 0 1-6.316-2.58" fill="none" stroke="#000" stroke-width="1.52085969"/><path d="M17.381 8.843a6.085 6.085 0 0 1 2.793 6.224 6.085 6.085 0 0 1-4.741 4.906 6.085 6.085 0 0 1-6.316-2.58" fill="none" stroke="#000" stroke-width="1.52085969"/><path d="M12.789 7.363l-.61-.61L9.762 9.17 7.344 6.753l-.61.61L9.153 9.78l-2.417 2.417.61.61 2.417-2.417 2.417 2.417.61-.61L10.37 9.78z"/></svg>

        <!-- plot screenshot -->
        <svg xmlns="http://www.w3.org/2000/svg" width="24" height="24" viewBox="0 0 24 24" id="plot-screenshot"><path d="M4.801 15.199v-1.598a.801.801 0 1 0-1.602 0v1.598a.801.801 0 1 0 1.602 0zM8 4a.8.8 0 0 0 .801.801h1.598a.801.801 0 1 0 0-1.602H8.801A.8.8 0 0 0 8 4zm-4 7.199a.8.8 0 0 0 .801-.801V8.801a.801.801 0 1 0-1.602 0v1.598A.8.8 0 0 0 4 11.2zm14.398-6.398h.801v.801a.801.801 0 1 0 1.602 0v-.801a1.6 1.6 0 0 0-1.602-1.602h-.801a.8.8 0 1 0 0 1.602zM12.801 4a.8.8 0 0 0 .801.801H15.2a.801.801 0 1 0 0-1.602h-1.598a.8.8 0 0 0-.801.801zM5.602 19.199h-.801v-.801a.8.8 0 1 0-1.602 0v.801a1.6 1.6 0 0 0 1.602 1.602h.801a.801.801 0 1 0 0-1.602z"/><path d="M4.801 5.602v-.801h.801a.8.8 0 1 0-.001-1.602H4.8a1.6 1.6 0 0 0-1.602 1.602v.801a.8.8 0 1 0 1.603 0zm14.398 3.199v1.602a.801.801 0 1 0 1.602 0V8.801a.801.801 0 1 0-1.602 0zm.801 4h-1.41c-.609 0-1.16-.344-1.434-.887l-.137-.273c-.133-.27-.41-.441-.715-.441h-3.809c-.305 0-.582.172-.719.441l-.137.273a1.6 1.6 0 0 1-1.43.887h-1.41a.8.8 0 0 0-.801.801V20a.8.8 0 0 0 .801.801H20a.8.8 0 0 0 .8-.801v-6.398a.8.8 0 0 0-.801-.801zM14.398 20a3.2 3.2 0 1 1 3.203-3.199c0 1.766-1.434 3.199-3.203 3.199zM16 16.801a1.6 1.6 0 1 1-3.2 0 1.6 1.6 0 1 1 3.2 0z"/></svg>

        <!-- filter active -->
        <svg xmlns="http://www.w3.org/2000/svg" width="48" height="48" viewBox="0 0 12.7 12.7" id="filter-active"><g transform="translate(0 -284.3)"><ellipse cx="7.938" cy="290.65" fill="red"/><path d="M1.71 285.358a.65.588 0 0 0-.047.002.65.588 0 0 0-.064.008.65.588 0 0 0-.064.013.65.588 0 0 0-.062.019.65.588 0 0 0-.06.024.65.588 0 0 0-.055.029.65.588 0 0 0-.054.034.65.588 0 0 0-.049.039.65.588 0 0 0-.044.043.65.588 0 0 0-.039.047.65.588 0 0 0-.034.05.65.588 0 0 0-.028.053.65.588 0 0 0-.022.055.65.588 0 0 0-.017.057.65.588 0 0 0-.01.058.65.588 0 0 0-.003.059.65.588 0 0 0 .002.041.65.588 0 0 0 .008.059.65.588 0 0 0 .014.057.65.588 0 0 0 .02.056.65.588 0 0 0 .027.054.65.588 0 0 0 .032.05.65.588 0 0 0 .006.01l3.23 4.377v4.701a.65.588 0 0 0 .002.042.65.588 0 0 0 .008.058.65.588 0 0 0 .014.058.65.588 0 0 0 .02.056.65.588 0 0 0 .027.053.65.588 0 0 0 .032.051.65.588 0 0 0 .038.048.65.588 0 0 0 .043.044.65.588 0 0 0 .048.04.65.588 0 0 0 .052.036.65.588 0 0 0 .055.03.65.588 0 0 0 .058.026.65.588 0 0 0 .061.02.65.588 0 0 0 .064.015.65.588 0 0 0 .064.01.65.588 0 0 0 .065.003H7.65a.65.588 0 0 0 .046-.002.65.588 0 0 0 .064-.008.65.588 0 0 0 .064-.013.65.588 0 0 0 .062-.019.65.588 0 0 0 .059-.023.65.588 0 0 0 .056-.03.65.588 0 0 0 .054-.034.65.588 0 0 0 .048-.038.65.588 0 0 0 .044-.043.65.588 0 0 0 .04-.047.65.588 0 0 0 .034-.05.65.588 0 0 0 .028-.053.65.588 0 0 0 .022-.055.65.588 0 0 0 .017-.058.65.588 0 0 0 .01-.058.65.588 0 0 0 .003-.058v-4.702l3.22-4.364.013-.016a.65.588 0 0 0 .027-.04.65.588 0 0 0 .028-.053.65.588 0 0 0 .022-.055.65.588 0 0 0 .016-.057.65.588 0 0 0 .01-.058.65.588 0 0 0 .004-.059.65.588 0 0 0-.002-.041.65.588 0 0 0-.008-.059.65.588 0 0 0-.014-.057.65.588 0 0 0-.02-.056.65.588 0 0 0-.027-.053.65.588 0 0 0-.033-.051.65.588 0 0 0-.037-.048.65.588 0 0 0-.043-.044.65.588 0 0 0-.048-.04.65.588 0 0 0-.052-.036.65.588 0 0 0-.055-.03.65.588 0 0 0-.059-.026.65.588 0 0 0-.061-.02.65.588 0 0 0-.063-.015.65.588 0 0 0-.064-.01.65.588 0 0 0-.065-.003z" fill-opacity=".875"/><path d="M2.117 286.152h8.466l-3.175 3.969v5.027H5.292v-5.027z" fill="#00001a" fill-opacity=".99"/></g></svg>

        <!-- filter -->
        <svg xmlns='http://www.w3.org/2000/svg' width='48' height='48' viewBox='0 0 12.7 12.7' id="filter"><g transform='translate(0 -284.3)'><ellipse cx='7.938' cy='290.65' fill='red'/><path d='M1.71 285.358a.65.588 0 0 0-.047.002.65.588 0 0 0-.064.008.65.588 0 0 0-.064.013.65.588 0 0 0-.062.019.65.588 0 0 0-.06.024.65.588 0 0 0-.055.029.65.588 0 0 0-.054.034.65.588 0 0 0-.049.039.65.588 0 0 0-.044.043.65.588 0 0 0-.039.047.65.588 0 0 0-.034.05.65.588 0 0 0-.028.053.65.588 0 0 0-.022.055.65.588 0 0 0-.017.057.65.588 0 0 0-.01.058.65.588 0 0 0-.003.059.65.588 0 0 0 .002.041.65.588 0 0 0 .008.059.65.588 0 0 0 .014.057.65.588 0 0 0 .02.056.65.588 0 0 0 .027.054.65.588 0 0 0 .032.05.65.588 0 0 0 .006.01l3.23 4.377v4.701a.65.588 0 0 0 .002.042.65.588 0 0 0 .008.058.65.588 0 0 0 .014.058.65.588 0 0 0 .02.056.65.588 0 0 0 .027.053.65.588 0 0 0 .032.051.65.588 0 0 0 .038.048.65.588 0 0 0 .043.044.65.588 0 0 0 .048.04.65.588 0 0 0 .052.036.65.588 0 0 0 .055.03.65.588 0 0 0 .058.026.65.588 0 0 0 .061.02.65.588 0 0 0 .064.015.65.588 0 0 0 .064.01.65.588 0 0 0 .065.003H7.65a.65.588 0 0 0 .046-.002.65.588 0 0 0 .064-.008.65.588 0 0 0 .064-.013.65.588 0 0 0 .062-.019.65.588 0 0 0 .059-.023.65.588 0 0 0 .056-.03.65.588 0 0 0 .054-.034.65.588 0 0 0 .048-.038.65.588 0 0 0 .044-.043.65.588 0 0 0 .04-.047.65.588 0 0 0 .034-.05.65.588 0 0 0 .028-.053.65.588 0 0 0 .022-.055.65.588 0 0 0 .017-.058.65.588 0 0 0 .01-.058.65.588 0 0 0 .003-.058v-4.702l3.22-4.364.013-.016a.65.588 0 0 0 .027-.04.65.588 0 0 0 .028-.053.65.588 0 0 0 .022-.055.65.588 0 0 0 .016-.057.65.588 0 0 0 .01-.058.65.588 0 0 0 .004-.059.65.588 0 0 0-.002-.041.65.588 0 0 0-.008-.059.65.588 0 0 0-.014-.057.65.588 0 0 0-.02-.056.65.588 0 0 0-.027-.053.65.588 0 0 0-.033-.051.65.588 0 0 0-.037-.048.65.588 0 0 0-.043-.044.65.588 0 0 0-.048-.04.65.588 0 0 0-.052-.036.65.588 0 0 0-.055-.03.65.588 0 0 0-.059-.026.65.588 0 0 0-.061-.02.65.588 0 0 0-.063-.015.65.588 0 0 0-.064-.01.65.588 0 0 0-.065-.003z' fill='#fff' fill-opacity='.96'/></g></svg>

    </defs>
</svg>